<svg id="Componente_1_1" data-name="Componente 1 – 1" xmlns="http://www.w3.org/2000/svg" xmlns:xlink="http://www.w3.org/1999/xlink" width="131.5" height="100" viewBox="0 0 131.5 100">
  <defs>
    <style>
      .cls-1 {
        fill: url(#linear-gradient);
      }

      .cls-2 {
        fill: url(#linear-gradient-2);
      }

      .cls-3 {
        fill: #340c87;
        font-size: 30px;
        font-family: ComicSansMS-Bold, Comic Sans MS;
        font-weight: 700;
      }
    </style>
    <linearGradient id="linear-gradient" x1="0.778" y1="0.115" x2="0.168" y2="0.881" gradientUnits="objectBoundingBox">
      <stop offset="0" stop-color="#6e00ff"/>
      <stop offset="0" stop-color="#4a1fd1"/>
      <stop offset="0" stop-color="#6214ff"/>
      <stop offset="0" stop-color="#6809ff"/>
      <stop offset="1" stop-color="#e20faa"/>
      <stop offset="1" stop-color="#0196f1"/>
      <stop offset="1" stop-color="#04b2ff"/>
      <stop offset="1" stop-color="#00b9ff"/>
    </linearGradient>
    <linearGradient id="linear-gradient-2" x1="0.209" y1="0.918" x2="0.809" y2="0.127" gradientUnits="objectBoundingBox">
      <stop offset="0" stop-color="#a200ff"/>
      <stop offset="0" stop-color="#7b0de9"/>
      <stop offset="0" stop-color="#843dff"/>
      <stop offset="0" stop-color="#7500b8"/>
      <stop offset="0.929" stop-color="#f5edfa"/>
      <stop offset="1" stop-color="#fff"/>
    </linearGradient>
  </defs>
  <path id="Sustracción_2" data-name="Sustracción 2" class="cls-1" d="M50,100A50.013,50.013,0,0,1,30.538,3.929,50.013,50.013,0,0,1,69.462,96.071,49.686,49.686,0,0,1,50,100Zm1-80A29,29,0,1,0,80,49,29.033,29.033,0,0,0,51,20Z"/>
  <path id="Sustracción_1" data-name="Sustracción 1" class="cls-2" d="M39,78a39,39,0,0,1-11.6-1.755A29,29,0,1,0,5,48a28.812,28.812,0,0,0,8.481,20.494,39.124,39.124,0,0,1-9.838-13.01A38.989,38.989,0,0,1,39,0,39.01,39.01,0,0,1,54.181,74.935,38.757,38.757,0,0,1,39,78Z" transform="translate(17 1)"/>
  <text id="Scrum" class="cls-3" transform="translate(86.5 59)"><tspan x="-44.766" y="0">Scrum</tspan></text>
</svg>
